<?xml version="1.0" standalone="no"?>
<!DOCTYPE svg PUBLIC "-//W3C//DTD SVG 20010904//EN"
 "http://www.w3.org/TR/2001/REC-SVG-20010904/DTD/svg10.dtd">
<svg version="1.0" xmlns="http://www.w3.org/2000/svg"
 width="348.000000pt" height="348.000000pt" viewBox="0 0 348.000000 348.000000"
 preserveAspectRatio="xMidYMid meet">
<metadata>
Created by potrace 1.14, written by Peter Selinger 2001-2017
</metadata>
<g transform="translate(0.000000,348.000000) scale(0.100000,-0.100000)"
fill="#000000" stroke="none">
<path d="M714 2818 c-91 -9 -153 -36 -207 -91 -94 -93 -105 -260 -24 -369 41
-55 117 -95 255 -134 148 -41 197 -72 208 -129 17 -92 -92 -162 -213 -135 -54
13 -109 50 -126 87 -13 28 -20 28 -138 -8 -79 -24 -81 -30 -28 -103 69 -95
200 -150 354 -150 155 0 257 48 320 149 25 41 31 61 34 127 3 69 0 85 -23 132
-29 60 -84 114 -145 145 -22 12 -90 34 -151 51 -166 45 -200 69 -200 138 0 78
56 122 155 122 68 0 102 -16 148 -71 l35 -41 89 27 c48 15 90 28 91 30 2 2 -9
27 -24 55 -70 129 -214 188 -410 168z"/>
<path d="M1310 2470 c0 -213 4 -359 11 -392 42 -198 213 -312 440 -295 135 11
243 68 305 161 60 91 64 120 64 514 l0 352 -94 0 -95 0 -3 -347 c-3 -338 -4
-349 -25 -390 -29 -53 -76 -89 -135 -102 -103 -23 -207 20 -247 101 -20 43
-21 57 -21 391 l0 347 -100 0 -100 0 0 -340z"/>
<path d="M2340 2304 l0 -506 248 4 247 3 68 33 c83 41 131 100 148 182 23 109
-6 197 -87 269 l-46 41 29 28 c75 70 96 189 49 287 -62 130 -161 164 -483 165
l-173 0 0 -506z m404 332 c69 -29 96 -107 61 -176 -25 -48 -61 -60 -175 -60
l-100 0 0 125 0 125 90 0 c54 0 104 -6 124 -14z m43 -419 c44 -23 66 -60 67
-111 2 -93 -51 -127 -211 -134 l-113 -5 0 138 0 138 113 -5 c79 -3 122 -9 144
-21z"/>
<path d="M1835 1678 c-125 -13 -213 -57 -302 -151 -180 -191 -178 -547 6 -733
60 -62 122 -100 196 -123 192 -60 374 -19 511 114 62 61 112 141 97 155 -4 5
-45 22 -89 38 l-82 30 -20 -37 c-27 -48 -77 -94 -132 -122 -36 -19 -61 -24
-120 -23 -92 0 -157 30 -219 100 -119 136 -104 395 31 509 61 52 112 68 203
63 113 -6 168 -40 245 -148 l15 -21 88 33 c48 18 87 36 87 39 0 4 -18 34 -40
67 -105 157 -272 231 -475 210z"/>
<path d="M450 1166 l0 -506 193 0 c218 0 291 12 387 60 169 85 261 240 263
440 1 189 -69 326 -217 422 -107 69 -161 80 -408 86 l-218 4 0 -506z m440 295
c177 -67 255 -274 168 -447 -56 -113 -180 -174 -355 -174 l-53 0 0 320 0 320
95 0 c69 0 108 -5 145 -19z"/>
</g>
</svg>
