<?xml version="1.0" encoding="iso-8859-1"?>
<!-- Uploaded to: SVG Repo, www.svgrepo.com, Generator: SVG Repo Mixer Tools -->
<svg fill="#000000" height="800px" width="800px" version="1.1" id="Layer_1" xmlns="http://www.w3.org/2000/svg" xmlns:xlink="http://www.w3.org/1999/xlink" 
	 viewBox="0 0 512 512" xml:space="preserve">
<g transform="translate(1 1)">
	<g>
		<g>
			<path d="M195.267,118.467h42.667c5.12,0,8.533-3.413,8.533-8.533V75.8c0-5.12-3.413-8.533-8.533-8.533h-42.667
				c-5.12,0-8.533,3.413-8.533,8.533v34.133C186.733,115.053,190.147,118.467,195.267,118.467z M203.8,84.333h25.6V101.4h-25.6
				V84.333z"/>
			<path d="M272.067,118.467h42.667c5.12,0,8.533-3.413,8.533-8.533V75.8c0-5.12-3.413-8.533-8.533-8.533h-42.667
				c-5.12,0-8.533,3.413-8.533,8.533v34.133C263.533,115.053,266.947,118.467,272.067,118.467z M280.6,84.333h25.6V101.4h-25.6
				V84.333z"/>
			<path d="M195.267,186.733h42.667c5.12,0,8.533-3.413,8.533-8.533v-34.133c0-5.12-3.413-8.533-8.533-8.533h-42.667
				c-5.12,0-8.533,3.413-8.533,8.533V178.2C186.733,183.32,190.147,186.733,195.267,186.733z M203.8,152.6h25.6v17.067h-25.6V152.6z
				"/>
			<path d="M272.067,186.733h42.667c5.12,0,8.533-3.413,8.533-8.533v-34.133c0-5.12-3.413-8.533-8.533-8.533h-42.667
				c-5.12,0-8.533,3.413-8.533,8.533V178.2C263.533,183.32,266.947,186.733,272.067,186.733z M280.6,152.6h25.6v17.067h-25.6V152.6z
				"/>
			<path d="M195.267,255h42.667c5.12,0,8.533-3.413,8.533-8.533v-34.133c0-5.12-3.413-8.533-8.533-8.533h-42.667
				c-5.12,0-8.533,3.413-8.533,8.533v34.133C186.733,251.587,190.147,255,195.267,255z M203.8,220.867h25.6v17.067h-25.6V220.867z"
				/>
			<path d="M272.067,255h42.667c5.12,0,8.533-3.413,8.533-8.533v-34.133c0-5.12-3.413-8.533-8.533-8.533h-42.667
				c-5.12,0-8.533,3.413-8.533,8.533v34.133C263.533,251.587,266.947,255,272.067,255z M280.6,220.867h25.6v17.067h-25.6V220.867z"
				/>
			<path d="M195.267,323.267h42.667c5.12,0,8.533-3.413,8.533-8.533V280.6c0-5.12-3.413-8.533-8.533-8.533h-42.667
				c-5.12,0-8.533,3.413-8.533,8.533v34.133C186.733,319.853,190.147,323.267,195.267,323.267z M203.8,289.133h25.6V306.2h-25.6
				V289.133z"/>
			<path d="M272.067,323.267h42.667c5.12,0,8.533-3.413,8.533-8.533V280.6c0-5.12-3.413-8.533-8.533-8.533h-42.667
				c-5.12,0-8.533,3.413-8.533,8.533v34.133C263.533,319.853,266.947,323.267,272.067,323.267z M280.6,289.133h25.6V306.2h-25.6
				V289.133z"/>
			<path d="M195.267,391.533h42.667c5.12,0,8.533-3.413,8.533-8.533v-34.133c0-5.12-3.413-8.533-8.533-8.533h-42.667
				c-5.12,0-8.533,3.413-8.533,8.533V383C186.733,388.12,190.147,391.533,195.267,391.533z M203.8,357.4h25.6v17.067h-25.6V357.4z"
				/>
			<path d="M272.067,391.533h42.667c5.12,0,8.533-3.413,8.533-8.533v-34.133c0-5.12-3.413-8.533-8.533-8.533h-42.667
				c-5.12,0-8.533,3.413-8.533,8.533V383C263.533,388.12,266.947,391.533,272.067,391.533z M280.6,357.4h25.6v17.067h-25.6V357.4z"
				/>
			<path d="M92.867,135.533H50.2c-5.12,0-8.533,3.413-8.533,8.533V178.2c0,5.12,3.413,8.533,8.533,8.533h42.667
				c5.12,0,8.533-3.413,8.533-8.533v-34.133C101.4,138.947,97.987,135.533,92.867,135.533z M84.333,169.667h-25.6V152.6h25.6
				V169.667z"/>
			<path d="M92.867,203.8H50.2c-5.12,0-8.533,3.413-8.533,8.533v34.133c0,5.12,3.413,8.533,8.533,8.533h42.667
				c5.12,0,8.533-3.413,8.533-8.533v-34.133C101.4,207.213,97.987,203.8,92.867,203.8z M84.333,237.933h-25.6v-17.067h25.6V237.933z
				"/>
			<path d="M92.867,272.067H50.2c-5.12,0-8.533,3.413-8.533,8.533v34.133c0,5.12,3.413,8.533,8.533,8.533h42.667
				c5.12,0,8.533-3.413,8.533-8.533V280.6C101.4,275.48,97.987,272.067,92.867,272.067z M84.333,306.2h-25.6v-17.067h25.6V306.2z"/>
			<path d="M92.867,340.333H50.2c-5.12,0-8.533,3.413-8.533,8.533V383c0,5.12,3.413,8.533,8.533,8.533h42.667
				c5.12,0,8.533-3.413,8.533-8.533v-34.133C101.4,343.747,97.987,340.333,92.867,340.333z M84.333,374.467h-25.6V357.4h25.6
				V374.467z"/>
			<path d="M417.133,255H459.8c5.12,0,8.533-3.413,8.533-8.533v-34.133c0-5.12-3.413-8.533-8.533-8.533h-42.667
				c-5.12,0-8.533,3.413-8.533,8.533v34.133C408.6,251.587,412.013,255,417.133,255z M425.667,220.867h25.6v17.067h-25.6V220.867z"
				/>
			<path d="M417.133,323.267H459.8c5.12,0,8.533-3.413,8.533-8.533V280.6c0-5.12-3.413-8.533-8.533-8.533h-42.667
				c-5.12,0-8.533,3.413-8.533,8.533v34.133C408.6,319.853,412.013,323.267,417.133,323.267z M425.667,289.133h25.6V306.2h-25.6
				V289.133z"/>
			<path d="M417.133,391.533H459.8c5.12,0,8.533-3.413,8.533-8.533v-34.133c0-5.12-3.413-8.533-8.533-8.533h-42.667
				c-5.12,0-8.533,3.413-8.533,8.533V383C408.6,388.12,412.013,391.533,417.133,391.533z M425.667,357.4h25.6v17.067h-25.6V357.4z"
				/>
			<path d="M511,178.2v-34.133c0-5.12-3.413-8.533-8.533-8.533H357.4V50.2c5.12,0,8.533-3.413,8.533-8.533V7.533
				c0-5.12-3.413-8.533-8.533-8.533H152.6c-5.12,0-8.533,3.413-8.533,8.533v34.133c0,5.12,3.413,8.533,8.533,8.533v17.067H7.533
				C2.413,67.267-1,70.68-1,75.8v34.133c0,5.12,3.413,8.533,8.533,8.533v324.267c-5.12,0-8.533,3.413-8.533,8.533v51.2
				c0,5.12,3.413,8.533,8.533,8.533h494.933c5.12,0,8.533-3.413,8.533-8.533v-51.2c0-5.12-3.413-8.533-8.533-8.533v-256
				C507.587,186.733,511,183.32,511,178.2z M493.933,152.6v17.067H357.4V152.6H493.933z M357.4,220.867h17.067v17.067H357.4V220.867
				z M357.4,289.133h17.067V306.2H357.4V289.133z M357.4,357.4h17.067v17.067H357.4V357.4z M161.133,16.067h187.733v17.067H161.133
				V16.067z M340.333,50.2v93.867V178.2v34.133v34.133V280.6v34.133v34.133V383v59.733H169.667V383v-34.133v-34.133V280.6v-34.133
				v-34.133V178.2v-34.133v-34.133V75.8V50.2H340.333z M152.6,374.467h-17.067V357.4H152.6V374.467z M152.6,306.2h-17.067v-17.067
				H152.6V306.2z M152.6,237.933h-17.067v-17.067H152.6V237.933z M152.6,169.667h-17.067V152.6H152.6V169.667z M16.067,84.333H152.6
				V101.4H16.067V84.333z M24.6,118.467h128v17.067H127c-5.12,0-8.533,3.413-8.533,8.533V178.2c0,5.12,3.413,8.533,8.533,8.533h25.6
				V203.8H127c-5.12,0-8.533,3.413-8.533,8.533v34.133c0,5.12,3.413,8.533,8.533,8.533h25.6v17.067H127
				c-5.12,0-8.533,3.413-8.533,8.533v34.133c0,5.12,3.413,8.533,8.533,8.533h25.6v17.067H127c-5.12,0-8.533,3.413-8.533,8.533V383
				c0,5.12,3.413,8.533,8.533,8.533h25.6v51.2h-128V118.467z M493.933,493.933H16.067V459.8h145.067h187.733h145.067V493.933z
				 M485.4,442.733h-128v-51.2H383c5.12,0,8.533-3.413,8.533-8.533v-34.133c0-5.12-3.413-8.533-8.533-8.533h-25.6v-17.067H383
				c5.12,0,8.533-3.413,8.533-8.533V280.6c0-5.12-3.413-8.533-8.533-8.533h-25.6V255H383c5.12,0,8.533-3.413,8.533-8.533v-34.133
				c0-5.12-3.413-8.533-8.533-8.533h-25.6v-17.067h128V442.733z"/>
		</g>
	</g>
</g>
</svg>